{"asset":{"generator":"3D Builder","version":"2.0"},"scene":0,"scenes":[{"nodes":[0,1,2,3,4,5,6,7,8]}],"nodes":[{"mesh":0,"matrix":[1,0,0,0,0,-1.1920928955078125E-7,-0.99999988079071045,0,0,0.99999988079071045,-1.1920928955078125E-7,0,0,0,0,1]},{"mesh":1,"matrix":[1,0,0,0,0,-1.1920928955078125E-7,-0.99999988079071045,0,0,0.99999988079071045,-1.1920928955078125E-7,0,0,0,0,1]},{"mesh":2,"matrix":[1,0,0,0,0,-1.1920928955078125E-7,-0.99999988079071045,0,0,0.99999988079071045,-1.1920928955078125E-7,0,0,0,0,1]},{"mesh":3,"matrix":[1,0,0,0,0,-1.1920928955078125E-7,-0.99999988079071045,0,0,0.99999988079071045,-1.1920928955078125E-7,0,0,0,0,1]},{"mesh":4,"matrix":[1,0,0,0,0,-1.1920928955078125E-7,-0.99999988079071045,0,0,0.99999988079071045,-1.1920928955078125E-7,0,0,0,0,1]},{"mesh":5,"matrix":[1,0,0,0,0,-1.1920928955078125E-7,-0.99999988079071045,0,0,0.99999988079071045,-1.1920928955078125E-7,0,0,0,0,1]},{"mesh":6,"matrix":[1,0,0,0,0,-1.1920928955078125E-7,-0.99999988079071045,0,0,0.99999988079071045,-1.1920928955078125E-7,0,0,0,0,1]},{"mesh":7,"matrix":[1,0,0,0,0,-1.1920928955078125E-7,-0.99999988079071045,0,0,0.99999988079071045,-1.1920928955078125E-7,0,0,0,0,1]},{"mesh":8,"matrix":[1,0,0,0,0,-1.1920928955078125E-7,-0.99999988079071045,0,0,0.99999988079071045,-1.1920928955078125E-7,0,0,0,0,1]}],"meshes":[{"primitives":[{"attributes":{"POSITION":0},"mode":4,"indices":1}]},{"primitives":[{"attributes":{"POSITION":2},"mode":4,"indices":3}]},{"primitives":[{"attributes":{"POSITION":4},"mode":4,"indices":5}]},{"primitives":[{"attributes":{"POSITION":6},"mode":4,"indices":7}]},{"primitives":[{"attributes":{"POSITION":8},"mode":4,"indices":9}]},{"primitives":[{"attributes":{"POSITION":10},"mode":4,"indices":11}]},{"primitives":[{"attributes":{"POSITION":12},"mode":4,"indices":13}]},{"primitives":[{"attributes":{"POSITION":14},"mode":4,"indices":15}]},{"primitives":[{"attributes":{"POSITION":16},"mode":4,"indices":17}]}],"accessors":[{"bufferView":0,"byteOffset":0,"count":7312,"componentType":5126,"type":"VEC3","min":[0.28960299491882324,-0.50622999668121338,-1.7670499590131754E-15],"max":[0.29978099465370178,-0.497715026140213,0.060000002384185791]},{"bufferView":1,"byteOffset":0,"count":43848,"componentType":5125,"type":"SCALAR"},{"bufferView":2,"byteOffset":0,"count":34280,"componentType":5126,"type":"VEC3","min":[0.08738350123167038,-0.42617398500442505,-6.3442304528204066E-17],"max":[0.190528005361557,-0.3386249840259552,0.060000002384185791]},{"bufferView":3,"byteOffset":0,"count":205656,"componentType":5125,"type":"SCALAR"},{"bufferView":4,"byteOffset":0,"count":39460,"componentType":5126,"type":"VEC3","min":[0.25591498613357544,-0.37282398343086243,1.0766798846391758E-15],"max":[0.33553099632263184,-0.34190899133682251,0.060000002384185791]},{"bufferView":5,"byteOffset":0,"count":236736,"componentType":5125,"type":"SCALAR"},{"bufferView":6,"byteOffset":0,"count":43488,"componentType":5126,"type":"VEC3","min":[-1.0160000324249268,-0.63499999046325684,-4.5119496924457894E-15],"max":[1.0160000324249268,0.63499999046325684,0.060000002384185791]},{"bufferView":7,"byteOffset":0,"count":261456,"componentType":5125,"type":"SCALAR"},{"bufferView":8,"byteOffset":0,"count":20010,"componentType":5126,"type":"VEC3","min":[-0.81081098318099976,-0.49229499697685242,-1.4977599738726674E-15],"max":[-0.58482998609542847,-0.29541698098182678,0.060000002384185791]},{"bufferView":9,"byteOffset":0,"count":120036,"componentType":5125,"type":"SCALAR"},{"bufferView":10,"byteOffset":0,"count":27418,"componentType":5126,"type":"VEC3","min":[-0.34028097987174988,-0.51225203275680542,-1.9082299166506148E-15],"max":[-0.31674098968505859,-0.49520096182823181,0.060000002384185791]},{"bufferView":11,"byteOffset":0,"count":164484,"componentType":5125,"type":"SCALAR"},{"bufferView":12,"byteOffset":0,"count":7312,"componentType":5126,"type":"VEC3","min":[-0.23041899502277374,-0.50622999668121338,-1.7670499590131754E-15],"max":[-0.220240980386734,-0.497715026140213,0.060000002384185791]},{"bufferView":13,"byteOffset":0,"count":43848,"componentType":5125,"type":"SCALAR"},{"bufferView":14,"byteOffset":0,"count":27418,"componentType":5126,"type":"VEC3","min":[-0.094924896955490112,-0.51225203275680542,-1.895410072993921E-15],"max":[-0.0713815987110138,-0.49520096182823181,0.060000002384185791]},{"bufferView":15,"byteOffset":0,"count":164484,"componentType":5125,"type":"SCALAR"},{"bufferView":16,"byteOffset":0,"count":32714,"componentType":5126,"type":"VEC3","min":[0.05905500054359436,-0.51150500774383545,-1.8794900887502764E-15],"max":[0.082659207284450531,-0.48939400911331177,0.060000002384185791]},{"bufferView":17,"byteOffset":0,"count":196260,"componentType":5125,"type":"SCALAR"}],"bufferViews":[{"buffer":0,"byteOffset":0,"byteLength":87744,"byteStride":12,"target":34962},{"buffer":0,"byteOffset":87744,"byteLength":175392,"target":34963},{"buffer":0,"byteOffset":263136,"byteLength":411360,"byteStride":12,"target":34962},{"buffer":0,"byteOffset":674496,"byteLength":822624,"target":34963},{"buffer":0,"byteOffset":1497120,"byteLength":473520,"byteStride":12,"target":34962},{"buffer":0,"byteOffset":1970640,"byteLength":946944,"target":34963},{"buffer":0,"byteOffset":2917584,"byteLength":521856,"byteStride":12,"target":34962},{"buffer":0,"byteOffset":3439440,"byteLength":1045824,"target":34963},{"buffer":0,"byteOffset":4485264,"byteLength":240120,"byteStride":12,"target":34962},{"buffer":0,"byteOffset":4725384,"byteLength":480144,"target":34963},{"buffer":0,"byteOffset":5205528,"byteLength":329016,"byteStride":12,"target":34962},{"buffer":0,"byteOffset":5534544,"byteLength":657936,"target":34963},{"buffer":0,"byteOffset":6192480,"byteLength":87744,"byteStride":12,"target":34962},{"buffer":0,"byteOffset":6280224,"byteLength":175392,"target":34963},{"buffer":0,"byteOffset":6455616,"byteLength":329016,"byteStride":12,"target":34962},{"buffer":0,"byteOffset":6784632,"byteLength":657936,"target":34963},{"buffer":0,"byteOffset":7442568,"byteLength":392568,"byteStride":12,"target":34962},{"buffer":0,"byteOffset":7835136,"byteLength":785040,"target":34963}],"buffers":[{"byteLength":8620176,"uri":"corte.bin"}]}