{"asset":{"generator":"3D Builder","version":"2.0"},"scene":0,"scenes":[{"nodes":[0,1,2,3,4,5,6,7,8]}],"nodes":[{"mesh":0,"matrix":[0.99999994039535522,0,0,0,0,-1.1920928244535389E-7,-0.99999982118606567,0,0,0.99999982118606567,-1.1920928244535389E-7,0,0,0,0,1]},{"mesh":1,"matrix":[0.99999994039535522,0,0,0,0,-1.1920928244535389E-7,-0.99999982118606567,0,0,0.99999982118606567,-1.1920928244535389E-7,0,0,0,0,1]},{"mesh":2,"matrix":[0.99999994039535522,0,0,0,0,-1.1920928244535389E-7,-0.99999982118606567,0,0,0.99999982118606567,-1.1920928244535389E-7,0,0,0,0,1]},{"mesh":3,"matrix":[0.99999994039535522,0,0,0,0,-1.1920928244535389E-7,-0.99999982118606567,0,0,0.99999982118606567,-1.1920928244535389E-7,0,0,0,0,1]},{"mesh":4,"matrix":[0.99999994039535522,0,0,0,0,-1.1920928244535389E-7,-0.99999982118606567,0,0,0.99999982118606567,-1.1920928244535389E-7,0,0,0,0,1]},{"mesh":5,"matrix":[0.99999994039535522,0,0,0,0,-1.1920928244535389E-7,-0.99999982118606567,0,0,0.99999982118606567,-1.1920928244535389E-7,0,0,0,0,1]},{"mesh":6,"matrix":[0.99999994039535522,0,0,0,0,-1.1920928244535389E-7,-0.99999982118606567,0,0,0.99999982118606567,-1.1920928244535389E-7,0,0,0,0,1]},{"mesh":7,"matrix":[0.99999994039535522,0,0,0,0,-1.1920928244535389E-7,-0.99999982118606567,0,0,0.99999982118606567,-1.1920928244535389E-7,0,0,0,0,1]},{"mesh":8,"matrix":[0.99999994039535522,0,0,0,0,-1.1920928244535389E-7,-0.99999982118606567,0,0,0.99999982118606567,-1.1920928244535389E-7,0,0,0,0,1]}],"meshes":[{"primitives":[{"attributes":{"POSITION":0,"COLOR_0":1},"mode":4,"indices":2}]},{"primitives":[{"attributes":{"POSITION":3,"COLOR_0":4},"mode":4,"indices":5}]},{"primitives":[{"attributes":{"POSITION":6,"COLOR_0":7},"mode":4,"indices":8}]},{"primitives":[{"attributes":{"POSITION":9,"COLOR_0":10},"mode":4,"indices":11}]},{"primitives":[{"attributes":{"POSITION":12},"mode":4,"indices":15,"material":0},{"attributes":{"POSITION":13,"COLOR_0":14},"mode":4,"indices":16}]},{"primitives":[{"attributes":{"POSITION":17,"COLOR_0":18},"mode":4,"indices":19}]},{"primitives":[{"attributes":{"POSITION":20,"COLOR_0":21},"mode":4,"indices":22}]},{"primitives":[{"attributes":{"POSITION":23,"COLOR_0":24},"mode":4,"indices":25}]},{"primitives":[{"attributes":{"POSITION":26,"COLOR_0":27},"mode":4,"indices":28}]}],"accessors":[{"bufferView":0,"byteOffset":0,"count":120,"componentType":5126,"type":"VEC3","min":[0.25591501593589783,-0.37282401323318481,1.8628801961710932E-15],"max":[0.33553102612495422,-0.3419090211391449,0.060000002384185791]},{"bufferView":1,"byteOffset":0,"count":120,"componentType":5121,"type":"VEC4","normalized":true},{"bufferView":2,"byteOffset":0,"count":348,"componentType":5125,"type":"SCALAR"},{"bufferView":3,"byteOffset":0,"count":3104,"componentType":5126,"type":"VEC3","min":[-1.0160000324249268,-0.63500005006790161,1.6940701354248271E-21],"max":[1.0160000324249268,0.63500005006790161,0.060000002384185791]},{"bufferView":4,"byteOffset":0,"count":3104,"componentType":5121,"type":"VEC4","normalized":true},{"bufferView":5,"byteOffset":0,"count":10080,"componentType":5125,"type":"SCALAR"},{"bufferView":6,"byteOffset":0,"count":72,"componentType":5126,"type":"VEC3","min":[-0.81081098318099976,-0.4922950267791748,9.8622502444365226E-16],"max":[-0.58483004570007324,-0.29541701078414917,0.060000002384185791]},{"bufferView":7,"byteOffset":0,"count":72,"componentType":5121,"type":"VEC4","normalized":true},{"bufferView":8,"byteOffset":0,"count":204,"componentType":5125,"type":"SCALAR"},{"bufferView":9,"byteOffset":0,"count":182,"componentType":5126,"type":"VEC3","min":[-0.34028100967407227,-0.51225203275680542,8.5865408047195173E-16],"max":[-0.316741019487381,-0.49520102143287659,0.060000002384185791]},{"bufferView":10,"byteOffset":0,"count":182,"componentType":5121,"type":"VEC4","normalized":true},{"bufferView":11,"byteOffset":0,"count":612,"componentType":5125,"type":"SCALAR"},{"bufferView":12,"byteOffset":0,"count":6,"componentType":5126,"type":"VEC3","min":[-0.23041900992393494,-0.50623005628585815,9.1497007182177875E-16],"max":[-0.2202410101890564,-0.497715026140213,0.060000002384185791]},{"bufferView":12,"byteOffset":72,"count":3,"componentType":5126,"type":"VEC3","min":[-0.23041900992393494,-0.50623005628585815,0.060000002384185791],"max":[-0.2202410101890564,-0.497715026140213,0.060000002384185791]},{"bufferView":13,"byteOffset":0,"count":3,"componentType":5121,"type":"VEC4","normalized":true},{"bufferView":14,"byteOffset":0,"count":21,"componentType":5125,"type":"SCALAR"},{"bufferView":14,"byteOffset":84,"count":3,"componentType":5125,"type":"SCALAR"},{"bufferView":15,"byteOffset":0,"count":208,"componentType":5126,"type":"VEC3","min":[-0.094924904406070709,-0.51225203275680542,8.7217902611767557E-16],"max":[-0.071381606161594391,-0.49520102143287659,0.060000002384185791]},{"bufferView":16,"byteOffset":0,"count":208,"componentType":5121,"type":"VEC4","normalized":true},{"bufferView":17,"byteOffset":0,"count":612,"componentType":5125,"type":"SCALAR"},{"bufferView":18,"byteOffset":0,"count":126,"componentType":5126,"type":"VEC3","min":[0.059055004268884659,-0.51150500774383545,8.7748505225751332E-16],"max":[0.082659207284450531,-0.48939403891563416,0.060000002384185791]},{"bufferView":19,"byteOffset":0,"count":126,"componentType":5121,"type":"VEC4","normalized":true},{"bufferView":20,"byteOffset":0,"count":360,"componentType":5125,"type":"SCALAR"},{"bufferView":21,"byteOffset":0,"count":12,"componentType":5126,"type":"VEC3","min":[0.28960302472114563,-0.50623005628585815,9.1497007182177875E-16],"max":[0.29978102445602417,-0.497715026140213,0.060000002384185791]},{"bufferView":22,"byteOffset":0,"count":12,"componentType":5121,"type":"VEC4","normalized":true},{"bufferView":23,"byteOffset":0,"count":24,"componentType":5125,"type":"SCALAR"},{"bufferView":24,"byteOffset":0,"count":288,"componentType":5126,"type":"VEC3","min":[0.08738350123167038,-0.42617404460906982,1.4782101358126829E-15],"max":[0.190528005361557,-0.33862501382827759,0.060000002384185791]},{"bufferView":25,"byteOffset":0,"count":288,"componentType":5121,"type":"VEC4","normalized":true},{"bufferView":26,"byteOffset":0,"count":852,"componentType":5125,"type":"SCALAR"}],"materials":[{"name":"Regular","pbrMetallicRoughness":{"baseColorFactor":[0.50288659334182739,0.50288659334182739,0.50288659334182739,1],"metallicFactor":0,"roughnessFactor":1}}],"bufferViews":[{"buffer":0,"byteOffset":0,"byteLength":1440,"byteStride":12,"target":34962},{"buffer":0,"byteOffset":1440,"byteLength":480,"byteStride":4,"target":34962},{"buffer":0,"byteOffset":1920,"byteLength":1392,"target":34963},{"buffer":0,"byteOffset":3312,"byteLength":37248,"byteStride":12,"target":34962},{"buffer":0,"byteOffset":40560,"byteLength":12416,"byteStride":4,"target":34962},{"buffer":0,"byteOffset":52976,"byteLength":40320,"target":34963},{"buffer":0,"byteOffset":93296,"byteLength":864,"byteStride":12,"target":34962},{"buffer":0,"byteOffset":94160,"byteLength":288,"byteStride":4,"target":34962},{"buffer":0,"byteOffset":94448,"byteLength":816,"target":34963},{"buffer":0,"byteOffset":95264,"byteLength":2184,"byteStride":12,"target":34962},{"buffer":0,"byteOffset":97448,"byteLength":728,"byteStride":4,"target":34962},{"buffer":0,"byteOffset":98176,"byteLength":2448,"target":34963},{"buffer":0,"byteOffset":100624,"byteLength":108,"byteStride":12,"target":34962},{"buffer":0,"byteOffset":100732,"byteLength":12,"byteStride":4,"target":34962},{"buffer":0,"byteOffset":100744,"byteLength":96,"target":34963},{"buffer":0,"byteOffset":100840,"byteLength":2496,"byteStride":12,"target":34962},{"buffer":0,"byteOffset":103336,"byteLength":832,"byteStride":4,"target":34962},{"buffer":0,"byteOffset":104168,"byteLength":2448,"target":34963},{"buffer":0,"byteOffset":106616,"byteLength":1512,"byteStride":12,"target":34962},{"buffer":0,"byteOffset":108128,"byteLength":504,"byteStride":4,"target":34962},{"buffer":0,"byteOffset":108632,"byteLength":1440,"target":34963},{"buffer":0,"byteOffset":110072,"byteLength":144,"byteStride":12,"target":34962},{"buffer":0,"byteOffset":110216,"byteLength":48,"byteStride":4,"target":34962},{"buffer":0,"byteOffset":110264,"byteLength":96,"target":34963},{"buffer":0,"byteOffset":110360,"byteLength":3456,"byteStride":12,"target":34962},{"buffer":0,"byteOffset":113816,"byteLength":1152,"byteStride":4,"target":34962},{"buffer":0,"byteOffset":114968,"byteLength":3408,"target":34963}],"buffers":[{"byteLength":118376,"uri":"corte.bin"}]}