{"asset":{"generator":"3D Builder","version":"2.0"},"scene":0,"scenes":[{"nodes":[0,1,2,3,4,5,6,7,8]}],"nodes":[{"mesh":0,"matrix":[0.99999994039535522,0,0,0,0,-1.1920928244535389E-7,-0.99999982118606567,0,0,0.99999982118606567,-1.1920928244535389E-7,0,0,0,0,1]},{"mesh":1,"matrix":[0.99999994039535522,0,0,0,0,-1.1920928244535389E-7,-0.99999982118606567,0,0,0.99999982118606567,-1.1920928244535389E-7,0,0,0,0,1]},{"mesh":2,"matrix":[0.99999994039535522,0,0,0,0,-1.1920928244535389E-7,-0.99999982118606567,0,0,0.99999982118606567,-1.1920928244535389E-7,0,0,0,0,1]},{"mesh":3,"matrix":[0.99999994039535522,0,0,0,0,-1.1920928244535389E-7,-0.99999982118606567,0,0,0.99999982118606567,-1.1920928244535389E-7,0,0,0,0,1]},{"mesh":4,"matrix":[0.99999994039535522,0,0,0,0,-1.1920928244535389E-7,-0.99999982118606567,0,0,0.99999982118606567,-1.1920928244535389E-7,0,0,0,0,1]},{"mesh":5,"matrix":[0.99999994039535522,0,0,0,0,-1.1920928244535389E-7,-0.99999982118606567,0,0,0.99999982118606567,-1.1920928244535389E-7,0,0,0,0,1]},{"mesh":6,"matrix":[0.99999994039535522,0,0,0,0,-1.1920928244535389E-7,-0.99999982118606567,0,0,0.99999982118606567,-1.1920928244535389E-7,0,0,0,0,1]},{"mesh":7,"matrix":[0.99999994039535522,0,0,0,0,-1.1920928244535389E-7,-0.99999982118606567,0,0,0.99999982118606567,-1.1920928244535389E-7,0,0,0,0,1]},{"mesh":8,"matrix":[0.99999994039535522,0,0,0,0,-1.1920928244535389E-7,-0.99999982118606567,0,0,0.99999982118606567,-1.1920928244535389E-7,0,0,0,0,1]}],"meshes":[{"primitives":[{"attributes":{"POSITION":0},"mode":4,"indices":1,"material":0}]},{"primitives":[{"attributes":{"POSITION":2},"mode":4,"indices":3,"material":0}]},{"primitives":[{"attributes":{"POSITION":4},"mode":4,"indices":5,"material":0}]},{"primitives":[{"attributes":{"POSITION":6},"mode":4,"indices":7,"material":0}]},{"primitives":[{"attributes":{"POSITION":8},"mode":4,"indices":9,"material":0}]},{"primitives":[{"attributes":{"POSITION":10},"mode":4,"indices":11,"material":0}]},{"primitives":[{"attributes":{"POSITION":12},"mode":4,"indices":13,"material":0}]},{"primitives":[{"attributes":{"POSITION":14},"mode":4,"indices":15,"material":0}]},{"primitives":[{"attributes":{"POSITION":16},"mode":4,"indices":17,"material":0}]}],"materials":[{"name":"Metallic","pbrMetallicRoughness":{"baseColorFactor":[0.91309869289398193,0.87136721611022949,0.87136721611022949,1],"metallicFactor":1,"roughnessFactor":0.25}}],"accessors":[{"bufferView":0,"byteOffset":0,"count":60,"componentType":5126,"type":"VEC3","min":[0.25591501593589783,-0.37282401323318481,1.8628801961710932E-15],"max":[0.33553102612495422,-0.3419090211391449,0.060000002384185791]},{"bufferView":1,"byteOffset":0,"count":348,"componentType":5125,"type":"SCALAR"},{"bufferView":2,"byteOffset":0,"count":1632,"componentType":5126,"type":"VEC3","min":[-1.0160000324249268,-0.63500005006790161,1.6940701354248271E-21],"max":[1.0160000324249268,0.63500005006790161,0.060000002384185791]},{"bufferView":3,"byteOffset":0,"count":10080,"componentType":5125,"type":"SCALAR"},{"bufferView":4,"byteOffset":0,"count":36,"componentType":5126,"type":"VEC3","min":[-0.81081098318099976,-0.4922950267791748,9.8622502444365226E-16],"max":[-0.58483004570007324,-0.29541701078414917,0.060000002384185791]},{"bufferView":5,"byteOffset":0,"count":204,"componentType":5125,"type":"SCALAR"},{"bufferView":6,"byteOffset":0,"count":104,"componentType":5126,"type":"VEC3","min":[-0.34028100967407227,-0.51225203275680542,8.5865408047195173E-16],"max":[-0.316741019487381,-0.49520102143287659,0.060000002384185791]},{"bufferView":7,"byteOffset":0,"count":612,"componentType":5125,"type":"SCALAR"},{"bufferView":8,"byteOffset":0,"count":6,"componentType":5126,"type":"VEC3","min":[-0.23041900992393494,-0.50623005628585815,9.1497007182177875E-16],"max":[-0.2202410101890564,-0.497715026140213,0.060000002384185791]},{"bufferView":9,"byteOffset":0,"count":24,"componentType":5125,"type":"SCALAR"},{"bufferView":10,"byteOffset":0,"count":104,"componentType":5126,"type":"VEC3","min":[-0.094924904406070709,-0.51225203275680542,8.7217902611767557E-16],"max":[-0.071381606161594391,-0.49520102143287659,0.060000002384185791]},{"bufferView":11,"byteOffset":0,"count":612,"componentType":5125,"type":"SCALAR"},{"bufferView":12,"byteOffset":0,"count":62,"componentType":5126,"type":"VEC3","min":[0.059055004268884659,-0.51150500774383545,8.7748505225751332E-16],"max":[0.082659207284450531,-0.48939403891563416,0.060000002384185791]},{"bufferView":13,"byteOffset":0,"count":360,"componentType":5125,"type":"SCALAR"},{"bufferView":14,"byteOffset":0,"count":6,"componentType":5126,"type":"VEC3","min":[0.28960302472114563,-0.50623005628585815,9.1497007182177875E-16],"max":[0.29978102445602417,-0.497715026140213,0.060000002384185791]},{"bufferView":15,"byteOffset":0,"count":24,"componentType":5125,"type":"SCALAR"},{"bufferView":16,"byteOffset":0,"count":144,"componentType":5126,"type":"VEC3","min":[0.08738350123167038,-0.42617404460906982,1.4782101358126829E-15],"max":[0.190528005361557,-0.33862501382827759,0.060000002384185791]},{"bufferView":17,"byteOffset":0,"count":852,"componentType":5125,"type":"SCALAR"}],"bufferViews":[{"buffer":0,"byteOffset":0,"byteLength":720,"byteStride":12,"target":34962},{"buffer":0,"byteOffset":720,"byteLength":1392,"target":34963},{"buffer":0,"byteOffset":2112,"byteLength":19584,"byteStride":12,"target":34962},{"buffer":0,"byteOffset":21696,"byteLength":40320,"target":34963},{"buffer":0,"byteOffset":62016,"byteLength":432,"byteStride":12,"target":34962},{"buffer":0,"byteOffset":62448,"byteLength":816,"target":34963},{"buffer":0,"byteOffset":63264,"byteLength":1248,"byteStride":12,"target":34962},{"buffer":0,"byteOffset":64512,"byteLength":2448,"target":34963},{"buffer":0,"byteOffset":66960,"byteLength":72,"byteStride":12,"target":34962},{"buffer":0,"byteOffset":67032,"byteLength":96,"target":34963},{"buffer":0,"byteOffset":67128,"byteLength":1248,"byteStride":12,"target":34962},{"buffer":0,"byteOffset":68376,"byteLength":2448,"target":34963},{"buffer":0,"byteOffset":70824,"byteLength":744,"byteStride":12,"target":34962},{"buffer":0,"byteOffset":71568,"byteLength":1440,"target":34963},{"buffer":0,"byteOffset":73008,"byteLength":72,"byteStride":12,"target":34962},{"buffer":0,"byteOffset":73080,"byteLength":96,"target":34963},{"buffer":0,"byteOffset":73176,"byteLength":1728,"byteStride":12,"target":34962},{"buffer":0,"byteOffset":74904,"byteLength":3408,"target":34963}],"buffers":[{"byteLength":78312,"uri":"corte.bin"}]}